<svg width="21" height="20" viewBox="0 0 21 20" fill="none" xmlns="http://www.w3.org/2000/svg">
<path d="M19.4852 0.021108L8.20303 0C7.90629 0.00626963 7.62379 0.128754 7.416 0.341233C7.2082 0.553713 7.09164 0.839304 7.09124 1.13687C7.09085 1.43444 7.20666 1.72034 7.41389 1.93337C7.62112 2.1464 7.9033 2.26963 8.20003 2.27669L16.679 2.29177L1.00241 18.0085C0.886316 18.1114 0.792466 18.2371 0.726643 18.3778C0.660819 18.5185 0.624415 18.6712 0.619672 18.8265C0.61493 18.9818 0.641948 19.1365 0.699065 19.281C0.756181 19.4254 0.842186 19.5566 0.951785 19.6665C1.06138 19.7764 1.19226 19.8626 1.33635 19.9199C1.48044 19.9771 1.63469 20.0042 1.78961 19.9995C1.94454 19.9947 2.09685 19.9582 2.23718 19.8922C2.3775 19.8262 2.50287 19.7321 2.60556 19.6157L18.3453 3.8357L18.2971 12.3937C18.2881 12.5483 18.3106 12.7032 18.3632 12.8488C18.4159 12.9944 18.4977 13.1277 18.6036 13.2405C18.7094 13.3534 18.8371 13.4434 18.9788 13.505C19.1206 13.5667 19.2734 13.5987 19.4279 13.5991C19.5824 13.5995 19.7354 13.5683 19.8774 13.5074C20.0195 13.4465 20.1477 13.3572 20.2541 13.2449C20.3605 13.1327 20.443 12.9998 20.4965 12.8544C20.5499 12.7091 20.5733 12.5544 20.565 12.3997L20.6191 1.16398C20.6193 1.01425 20.59 0.865951 20.5329 0.727585C20.4758 0.589219 20.3921 0.463498 20.2865 0.357621C20.1809 0.251743 20.0555 0.16779 19.9175 0.110564C19.7795 0.0533374 19.6315 0.0239635 19.4822 0.0241241L19.4852 0.021108Z" fill="#171717"/>
</svg>
