<svg width="40" height="40" viewBox="0 0 40 40" fill="none" xmlns="http://www.w3.org/2000/svg">
<path d="M34 0H6C2.68629 0 0 2.68629 0 6V34C0 37.3137 2.68629 40 6 40H34C37.3137 40 40 37.3137 40 34V6C40 2.68629 37.3137 0 34 0Z" fill="#171717"/>
<path d="M27.0406 16.5516C21.3081 16.5516 21.3007 22.2625 21.3007 22.2919C21.3007 22.2919 20.9079 28.01 27.0406 28.01C27.0406 28.01 32.155 28.3007 32.155 24.0304H29.5289C29.5289 24.0304 29.6159 25.6381 27.128 25.6381C27.128 25.6381 24.5018 25.8128 24.5018 23.0409H32.2425C32.2425 23.0409 33.0937 16.5516 27.0406 16.5516ZM24.4724 21.0402C24.4724 21.0402 24.7926 18.7412 27.099 18.7412C29.4125 18.7412 29.376 21.0402 29.376 21.0402H24.4724ZM17.9109 19.5709C17.9109 19.5709 20.1879 19.4035 20.1879 16.7264C20.1879 14.0566 18.3256 12.7468 15.9611 12.7468H8.18372V27.6968H15.9604C15.9604 27.6968 20.7112 27.8426 20.7112 23.2811C20.7116 23.2811 20.9154 19.5709 17.9109 19.5709ZM11.6105 15.4021H15.9608C15.9608 15.4021 17.0158 15.4021 17.0158 16.9588C17.0158 18.5155 16.3974 18.7412 15.6916 18.7412H11.6105V15.4021ZM15.7429 25.0419H11.6105V21.0405H15.9608C15.9608 21.0405 17.5398 21.026 17.5324 23.0992C17.5324 24.8456 16.3613 25.0274 15.7429 25.0419ZM23.8249 13.6278V15.4686H29.9943V13.6278H23.8249Z" fill="white"/>
</svg>
