<svg width="25" height="16" viewBox="0 0 25 16" fill="none" xmlns="http://www.w3.org/2000/svg">
<path d="M18.8569 3.99603C13.1244 3.99603 13.117 9.70697 13.117 9.73635C13.117 9.73635 12.7242 15.4544 18.8569 15.4544C18.8569 15.4544 23.9713 15.7452 23.9713 11.4749H21.3452C21.3452 11.4749 21.4322 13.0825 18.9443 13.0825C18.9443 13.0825 16.318 13.2573 16.318 10.4853H24.0588C24.0588 10.4853 24.91 3.99603 18.8569 3.99603ZM16.2887 8.48463C16.2887 8.48463 16.6089 6.18564 18.9152 6.18564C21.2288 6.18564 21.1923 8.48463 21.1923 8.48463H16.2887ZM9.72719 7.01533C9.72719 7.01533 12.0042 6.84799 12.0042 4.1708C12.0042 1.50103 10.1419 0.191269 7.77742 0.191269H0V15.1413H7.77672C7.77672 15.1413 12.5275 15.287 12.5275 10.7256C12.5279 10.7256 12.7316 7.01533 9.72719 7.01533ZM3.4268 2.8465H7.77711C7.77711 2.8465 8.83211 2.8465 8.83211 4.40322C8.83211 5.95994 8.21367 6.18564 7.50789 6.18564H3.4268V2.8465ZM7.55914 12.4863H3.4268V8.48494H7.77711C7.77711 8.48494 9.35609 8.47041 9.34867 10.5437C9.34867 12.29 8.17758 12.4718 7.55914 12.4863ZM15.6412 1.07229V2.91307H21.8106V1.07229H15.6412Z" fill="white"/>
</svg>
