<svg width="33" height="32" viewBox="0 0 33 32" fill="none" xmlns="http://www.w3.org/2000/svg">
<path d="M26.4528 7.68C26.1339 3.41333 22.6256 0 18.2668 0H9.23022C4.6588 0 0.937866 3.73333 0.937866 8.21333V23.4667C0.937866 23.8933 1.15049 24.2133 1.57574 24.4267C1.68205 24.5333 1.89468 24.5333 2.00099 24.5333C2.21361 24.5333 2.53255 24.4267 2.74518 24.32C4.12723 23.1467 5.72192 22.1867 7.3166 21.44V30.9333C7.3166 31.36 7.52923 31.68 7.95448 31.8933C8.06079 32 8.27341 32 8.37973 32C8.59235 32 8.91129 31.8933 9.12391 31.7867C12.207 29.0133 16.2468 27.52 20.393 27.52H24.6455C29.2169 27.52 32.9379 23.7867 32.9379 19.3067V15.68C32.8316 11.84 30.0674 8.53333 26.4528 7.68ZM30.7053 19.3067C30.7053 22.72 27.9412 25.3867 24.5392 25.3867H20.2867C16.4595 25.3867 12.6322 26.56 9.44285 28.8V20.6933C10.9312 20.2667 12.4196 20.0533 14.0143 20.0533H18.2668C22.8382 20.0533 26.5591 16.32 26.5591 11.84V9.92C29.0043 10.6667 30.8116 13.0133 30.8116 15.68V19.3067H30.7053Z" fill="#171717"/>
</svg>
