<svg width="32" height="32" viewBox="0 0 32 32" fill="none" xmlns="http://www.w3.org/2000/svg">
<path d="M25.5149 7.68C25.196 3.41333 21.6877 0 17.3289 0H8.29236C3.72093 0 0 3.73333 0 8.21333V23.4667C0 23.8933 0.212625 24.2133 0.637874 24.4267C0.744186 24.5333 0.956811 24.5333 1.06312 24.5333C1.27575 24.5333 1.59468 24.4267 1.80731 24.32C3.18937 23.1467 4.78405 22.1867 6.37874 21.44V30.9333C6.37874 31.36 6.59136 31.68 7.01661 31.8933C7.12292 32 7.33555 32 7.44186 32C7.65448 32 7.97342 31.8933 8.18605 31.7867C11.2691 29.0133 15.309 27.52 19.4551 27.52H23.7076C28.2791 27.52 32 23.7867 32 19.3067V15.68C31.8937 11.84 29.1296 8.53333 25.5149 7.68ZM29.7674 19.3067C29.7674 22.72 27.0033 25.3867 23.6013 25.3867H19.3488C15.5216 25.3867 11.6944 26.56 8.50498 28.8V20.6933C9.99335 20.2667 11.4817 20.0533 13.0764 20.0533H17.3289C21.9003 20.0533 25.6213 16.32 25.6213 11.84V9.92C28.0664 10.6667 29.8738 13.0133 29.8738 15.68V19.3067H29.7674Z" fill="white"/>
</svg>
