<svg width="64" height="64" viewBox="0 0 64 64" fill="none" xmlns="http://www.w3.org/2000/svg">
<path d="M22.1542 0.000488281H7.38475C5.33319 0.000488281 3.58972 0.849071 2.15354 2.54576C0.718025 4.24276 0 6.30324 0 8.72799V26.1824C0 28.607 0.717621 30.6671 2.15354 32.3638C3.58959 34.0603 5.33359 34.9092 7.38475 34.9092H16.0001C17.0254 34.9092 17.8974 35.3337 18.6154 36.1819C19.3335 37.0297 19.6923 38.0606 19.6923 39.2733V40.727C19.6923 43.9394 18.7306 46.681 16.8077 48.9542C14.8847 51.2262 12.5644 52.3626 9.84597 52.3626H7.38475C6.71764 52.3626 6.14093 52.6513 5.65354 53.2267C5.16655 53.8021 4.92285 54.4841 4.92285 55.272V61.0909C4.92285 61.8776 5.16655 62.5609 5.65354 63.1365C6.14134 63.7117 6.71751 64.0005 7.38475 64.0005H9.8461C12.513 64.0005 15.0579 63.3859 17.4811 62.1591C19.9042 60.9321 22.0003 59.2725 23.7696 57.1814C25.5385 55.0902 26.9425 52.6136 27.9809 49.7497C29.0191 46.886 29.5384 43.8786 29.5384 40.7272V8.72736C29.5384 6.30261 28.8204 4.24229 27.3848 2.5456C25.9491 0.848912 24.2053 0.000488281 22.1542 0.000488281Z" fill="#D1D3D7"/>
<path d="M61.8455 2.54576C60.41 0.849071 58.6664 0.000488281 56.6148 0.000488281H41.8459C39.7943 0.000488281 38.0508 0.849071 36.6152 2.54576C35.1797 4.24292 34.4619 6.30324 34.4619 8.72799V26.1824C34.4619 28.607 35.1797 30.6671 36.6152 32.3638C38.0508 34.0603 39.7944 34.9092 41.8459 34.9092H50.4612C51.4865 34.9092 52.3592 35.3337 53.0771 36.1819C53.7943 37.0302 54.154 38.0606 54.154 39.2733V40.727C54.154 43.9394 53.1923 46.681 51.269 48.9542C49.346 51.2262 47.0263 52.3626 44.3076 52.3626H41.8459C41.1793 52.3626 40.602 52.6513 40.1152 53.2267C39.6279 53.8021 39.384 54.4841 39.384 55.272V61.0909C39.384 61.8776 39.6279 62.5609 40.1152 63.1365C40.6019 63.7117 41.1792 64.0005 41.8459 64.0005H44.3076C46.9741 64.0005 49.5189 63.3859 51.9424 62.1591C54.3651 60.9321 56.4608 59.2725 58.2303 57.1814C59.9996 55.0902 61.4044 52.6129 62.4421 49.7497C63.4802 46.8867 63.9998 43.8786 63.9998 40.7272V8.72736C63.9994 6.30261 63.2821 4.24229 61.8455 2.54576Z" fill="#D1D3D7"/>
</svg>
