<svg width="40" height="40" viewBox="0 0 40 40" fill="none" xmlns="http://www.w3.org/2000/svg">
<path d="M35 0H5C2.23858 0 0 2.23858 0 5V35C0 37.7614 2.23858 40 5 40H35C37.7614 40 40 37.7614 40 35V5C40 2.23858 37.7614 0 35 0Z" fill="#171717"/>
<path d="M25.2836 27.718C24.9025 25.5409 24.3104 23.4061 23.5157 21.3437C25.1485 21.1391 27.0313 21.1875 29.2188 21.5867C29.004 22.8192 28.5453 23.9964 27.8696 25.0492C27.1939 26.1021 26.3147 27.0094 25.2836 27.718ZM14.3251 27.4289C15.9032 25.0492 18.1071 22.6969 21.6805 21.7078C22.5687 23.9443 23.2017 26.2739 23.5672 28.6523C22.4351 29.1152 21.2239 29.354 20.0008 29.3555C17.9481 29.3575 15.9524 28.6801 14.3251 27.4289ZM10.6477 20V19.7008H10.7032C14.0352 19.7008 17.3501 19.4766 20.3126 18.607C20.5282 19.0547 20.7532 19.5125 20.9563 19.9883C17.0555 21.1375 14.6196 23.7031 12.9586 26.1477C11.4637 24.4493 10.6417 22.2626 10.6477 20ZM15.9766 11.5523C17.2544 13.2617 18.4116 15.058 19.4399 16.9281C16.8079 17.6477 13.868 17.843 10.9001 17.8523C11.2251 16.4911 11.8493 15.2193 12.7275 14.1295C13.6056 13.0398 14.7156 12.1594 15.9766 11.5523ZM26.0547 12.8805C24.7391 14.4859 23.086 15.5867 21.211 16.3336C20.1939 14.4527 19.0534 12.6411 17.7969 10.9109C18.5186 10.7381 19.258 10.65 20.0001 10.6484C22.2209 10.645 24.3698 11.4358 26.0586 12.8781L26.0547 12.8805ZM27.3438 14.2187C28.5867 15.7945 29.2898 17.7283 29.3493 19.7344C26.829 19.2961 24.6618 19.2766 22.7969 19.5781C22.5555 19.0367 22.3126 18.5031 22.0602 17.9906C24.0688 17.1719 25.8711 15.968 27.3438 14.2187ZM20.0001 8.79609C17.7851 8.79609 15.6198 9.45286 13.7781 10.6834C11.9363 11.9139 10.5008 13.6628 9.65298 15.7091C8.80516 17.7554 8.58314 20.0072 9.01497 22.1797C9.44681 24.3521 10.5131 26.3478 12.0791 27.9143C13.645 29.4808 15.6403 30.5478 17.8126 30.9804C19.985 31.413 22.2368 31.1918 24.2834 30.3447C26.33 29.4976 28.0795 28.0626 29.3106 26.2213C30.5418 24.38 31.1993 22.215 31.2001 20C31.2005 18.5291 30.911 17.0725 30.3483 15.7135C29.7856 14.3544 28.9607 13.1196 27.9206 12.0795C26.8805 11.0394 25.6456 10.2144 24.2866 9.65171C22.9276 9.089 21.471 8.79959 20.0001 8.8V8.79609Z" fill="white"/>
</svg>
