<svg width="24" height="23" viewBox="0 0 24 23" fill="none" xmlns="http://www.w3.org/2000/svg">
<path d="M17.0999 19.1624C16.7188 16.9853 16.1267 14.8505 15.332 12.7882C16.9648 12.5835 18.8476 12.6319 21.0351 13.0312C20.8203 14.2636 20.3616 15.4408 19.6859 16.4937C19.0101 17.5465 18.131 18.4538 17.0999 19.1624ZM6.14134 18.8734C7.71946 16.4937 9.92337 14.1413 13.4968 13.1523C14.385 15.3887 15.0179 17.7183 15.3835 20.0968C14.2514 20.5597 13.0402 20.7985 11.8171 20.7999C9.76438 20.8019 7.76869 20.1245 6.14134 18.8734ZM2.46399 11.4444V11.1452H2.51946C5.85149 11.1452 9.16634 10.921 12.1288 10.0515C12.3445 10.4991 12.5695 10.9569 12.7726 11.4327C8.87181 12.5819 6.43587 15.1476 4.77493 17.5921C3.27996 15.8937 2.45799 13.7071 2.46399 11.4444ZM7.7929 2.99679C9.07066 4.70619 10.2279 6.50246 11.2562 8.37257C8.62415 9.0921 5.68431 9.28741 2.71634 9.29679C3.04135 7.9355 3.66561 6.66374 4.54375 5.57397C5.4219 4.4842 6.53184 3.6038 7.7929 2.99679ZM17.871 4.32491C16.5554 5.93038 14.9023 7.03117 13.0273 7.77804C12.0102 5.8971 10.8697 4.08559 9.61321 2.35538C10.3349 2.18251 11.0743 2.09442 11.8163 2.09288C14.0372 2.08945 16.1861 2.88029 17.8749 4.32257L17.871 4.32491ZM19.1601 5.6632C20.403 7.23898 21.1061 9.17274 21.1656 11.1788C18.6452 10.7405 16.4781 10.721 14.6132 11.0226C14.3718 10.4812 14.1288 9.94757 13.8765 9.43507C15.8851 8.61632 17.6874 7.41241 19.1601 5.6632ZM11.8163 0.24054C9.60135 0.24054 7.4361 0.897311 5.59436 2.12781C3.75261 3.35831 2.31708 5.10728 1.46926 7.15358C0.621445 9.19989 0.399419 11.4516 0.831257 13.6241C1.2631 15.7966 2.3294 17.7923 3.89536 19.3588C5.46132 20.9253 7.4566 21.9923 9.62893 22.4249C11.8013 22.8575 14.0531 22.6362 16.0997 21.7891C18.1463 20.942 19.8958 19.5071 21.1269 17.6658C22.358 15.8245 23.0156 13.6594 23.0163 11.4444C23.0167 9.97353 22.7273 8.51694 22.1646 7.15791C21.6019 5.79887 20.7769 4.56403 19.7368 3.52393C18.6968 2.48384 17.4619 1.65887 16.1029 1.09616C14.7438 0.533452 13.2873 0.244035 11.8163 0.244446V0.24054Z" fill="white"/>
</svg>
