<svg width="28" height="27" viewBox="0 0 28 27" fill="none" xmlns="http://www.w3.org/2000/svg">
<path fill-rule="evenodd" clip-rule="evenodd" d="M13.8155 0.666672C6.45303 0.666672 0.483032 6.6595 0.483032 14.0537C0.483032 19.967 4.30303 24.9844 9.6022 26.7547C10.2689 26.8777 10.5122 26.4644 10.5122 26.1096C10.5122 25.7917 10.5005 24.9501 10.4939 23.8331C6.7847 24.6422 6.0022 22.0386 6.0022 22.0386C5.39637 20.4925 4.5222 20.0808 4.5222 20.0808C3.31137 19.25 4.61386 19.2668 4.61386 19.2668C5.95136 19.3613 6.65553 20.6464 6.65553 20.6464C7.84553 22.692 9.77637 22.1013 10.5364 21.7583C10.6572 20.8932 11.0022 20.3034 11.383 19.9687C8.4222 19.6307 5.3097 18.4828 5.3097 13.3534C5.3097 11.8918 5.82887 10.6971 6.6822 9.76091C6.5447 9.42207 6.0872 8.0617 6.8122 6.21859C6.8122 6.21859 7.9322 5.85884 10.4789 7.59068C11.543 7.29367 12.683 7.14559 13.8172 7.13973C14.9497 7.14559 16.0905 7.29367 17.1555 7.59068C19.7005 5.85884 20.818 6.21859 20.818 6.21859C21.5455 8.0617 21.088 9.42207 20.9505 9.76091C21.8055 10.6971 22.3214 11.8918 22.3214 13.3534C22.3214 18.4954 19.2039 19.6274 16.2339 19.9587C16.7122 20.372 17.1389 21.1885 17.1389 22.4376C17.1389 24.2272 17.1222 25.6704 17.1222 26.1096C17.1222 26.4677 17.3622 26.8844 18.0389 26.753C23.333 24.9793 27.1497 19.9654 27.1497 14.0537C27.1497 6.6595 21.1797 0.666672 13.8155 0.666672Z" fill="white"/>
</svg>
