<svg width="40" height="40" viewBox="0 0 40 40" fill="none" xmlns="http://www.w3.org/2000/svg">
<path fill-rule="evenodd" clip-rule="evenodd" d="M4.44444 40H35.5556C38.0102 40 40 38.0102 40 35.5556V4.44444C40 1.98985 38.0102 0 35.5556 0H4.44444C1.98985 0 0 1.98985 0 4.44444V35.5556C0 38.0102 1.98985 40 4.44444 40Z" fill="#171717"/>
<path fill-rule="evenodd" clip-rule="evenodd" d="M19.9992 7.22223C12.6367 7.22223 6.66675 13.2151 6.66675 20.6093C6.66675 26.5226 10.4867 31.5399 15.7859 33.3102C16.4526 33.4332 16.6959 33.0199 16.6959 32.6652C16.6959 32.3473 16.6842 31.5056 16.6776 30.3887C12.9684 31.1977 12.1859 28.5941 12.1859 28.5941C11.5801 27.048 10.7059 26.6364 10.7059 26.6364C9.49508 25.8056 10.7976 25.8223 10.7976 25.8223C12.1351 25.9169 12.8392 27.202 12.8392 27.202C14.0292 29.2475 15.9601 28.6569 16.7201 28.3138C16.8409 27.4488 17.1859 26.8589 17.5667 26.5243C14.6059 26.1863 11.4934 25.0384 11.4934 19.909C11.4934 18.4474 12.0126 17.2527 12.8659 16.3165C12.7284 15.9776 12.2709 14.6173 12.9959 12.7741C12.9959 12.7741 14.1159 12.4144 16.6626 14.1462C17.7267 13.8492 18.8667 13.7011 20.0009 13.6953C21.1334 13.7011 22.2742 13.8492 23.3392 14.1462C25.8842 12.4144 27.0017 12.7741 27.0017 12.7741C27.7292 14.6173 27.2717 15.9776 27.1342 16.3165C27.9892 17.2527 28.5051 18.4474 28.5051 19.909C28.5051 25.051 25.3876 26.1829 22.4176 26.5142C22.8959 26.9275 23.3226 27.7441 23.3226 28.9932C23.3226 30.7828 23.3059 32.226 23.3059 32.6652C23.3059 33.0233 23.5459 33.4399 24.2226 33.3086C29.5167 31.5349 33.3334 26.5209 33.3334 20.6093C33.3334 13.2151 27.3634 7.22223 19.9992 7.22223Z" fill="white"/>
</svg>
