<svg width="40" height="40" viewBox="0 0 40 40" fill="none" xmlns="http://www.w3.org/2000/svg">
<path fill-rule="evenodd" clip-rule="evenodd" d="M4.44444 40H35.5556C38.0102 40 40 38.0102 40 35.5556V4.44444C40 1.98985 38.0102 0 35.5556 0H4.44444C1.98985 0 0 1.98985 0 4.44444V35.5556C0 38.0102 1.98985 40 4.44444 40Z" fill="#171717"/>
<path fill-rule="evenodd" clip-rule="evenodd" d="M34.4444 34.4444H28.5087V24.3345C28.5087 21.5626 27.4554 20.0136 25.2615 20.0136C22.8748 20.0136 21.6278 21.6256 21.6278 24.3345V34.4444H15.9074V15.1852H21.6278V17.7794C21.6278 17.7794 23.3478 14.5968 27.4347 14.5968C31.5198 14.5968 34.4444 17.0914 34.4444 22.2507V34.4444ZM9.08296 12.6633C7.13446 12.6633 5.55554 11.072 5.55554 9.10945C5.55554 7.14687 7.13446 5.55556 9.08296 5.55556C11.0315 5.55556 12.6094 7.14687 12.6094 9.10945C12.6094 11.072 11.0315 12.6633 9.08296 12.6633ZM6.12918 34.4444H12.0941V15.1852H6.12918V34.4444Z" fill="white"/>
</svg>
