<svg width="30" height="29" viewBox="0 0 30 29" fill="none" xmlns="http://www.w3.org/2000/svg">
<path fill-rule="evenodd" clip-rule="evenodd" d="M29.2607 28.8889H23.325V18.779C23.325 16.0071 22.2717 14.4581 20.0778 14.4581C17.6911 14.4581 16.4441 16.0701 16.4441 18.779V28.8889H10.7237V9.62963H16.4441V12.2239C16.4441 12.2239 18.1641 9.04123 22.251 9.04123C26.3361 9.04123 29.2607 11.5358 29.2607 16.6951V28.8889ZM3.89924 7.10779C1.95075 7.10779 0.371826 5.51648 0.371826 3.55389C0.371826 1.59131 1.95075 0 3.89924 0C5.84774 0 7.42572 1.59131 7.42572 3.55389C7.42572 5.51648 5.84774 7.10779 3.89924 7.10779ZM0.945466 28.8889H6.91038V9.62963H0.945466V28.8889Z" fill="white"/>
</svg>
